<svg width="24" height="24" viewBox="0 0 24 24" fill="none" xmlns="http://www.w3.org/2000/svg">
<path d="M16 13H3" stroke="white" stroke-width="2" stroke-linecap="round" stroke-linejoin="round"/>
<path d="M16 17H3" stroke="white" stroke-width="2" stroke-linecap="round" stroke-linejoin="round"/>
<path d="M7.2 7.89962L3.812 10.3996C3.56004 10.5857 3.3553 10.8283 3.21426 11.1079C3.07322 11.3876 2.99983 11.6964 3 12.0096V19.9996C3 20.2648 3.10536 20.5192 3.29289 20.7067C3.48043 20.8943 3.73478 20.9996 4 20.9996H20C20.2652 20.9996 20.5196 20.8943 20.7071 20.7067C20.8946 20.5192 21 20.2648 21 19.9996V11.3456C21 9.34562 18.56 5.31962 14.56 3.31962C14.3932 3.22417 14.2025 3.17878 14.0106 3.18889C13.8187 3.19899 13.6338 3.26417 13.478 3.37662L10.4 5.59962" stroke="white" stroke-width="2" stroke-linecap="round" stroke-linejoin="round"/>
<path d="M9 9C10.1046 9 11 8.10457 11 7C11 5.89543 10.1046 5 9 5C7.89543 5 7 5.89543 7 7C7 8.10457 7.89543 9 9 9Z" stroke="white" stroke-width="2" stroke-linecap="round" stroke-linejoin="round"/>
</svg>
