<svg width="24" height="24" viewBox="0 0 24 24" fill="none" xmlns="http://www.w3.org/2000/svg">
<path d="M16.4 13.7001C17.2201 13.0837 17.8828 12.282 18.3336 11.3604C18.7845 10.4388 19.0108 9.42352 18.994 8.39768C18.9773 7.37184 18.7179 6.36454 18.2372 5.45817C17.7564 4.5518 17.0679 3.7721 16.2281 3.18286C15.3882 2.59361 14.4207 2.21154 13.4048 2.06791C12.389 1.92429 11.3535 2.02317 10.3832 2.35649C9.41289 2.6898 8.53525 3.24808 7.82207 3.98565C7.1089 4.72322 6.58045 5.61913 6.27996 6.60011C5.17996 9.73011 5.49996 10.5001 3.09996 12.6801C2.62172 13.0722 2.27633 13.6025 2.11106 14.1984C1.9458 14.7943 1.96873 15.4267 2.17673 16.0091C2.38472 16.5915 2.76761 17.0954 3.27299 17.4518C3.77837 17.8082 4.38154 17.9997 4.99996 18.0001C8.99996 18.0001 13.4 16.2001 16.4 13.7001Z" stroke="white" stroke-width="2" stroke-linecap="round" stroke-linejoin="round"/>
<path d="M18.4999 6L20.6899 10.5C21.1091 11.7889 21.1136 13.1767 20.7028 14.4683C20.292 15.7598 19.4866 16.8901 18.3999 17.7C15.3999 20.2 10.9999 22 6.9999 22C6.44315 21.9992 5.8976 21.8436 5.42429 21.5504C4.95098 21.2572 4.56858 20.8381 4.3199 20.34L2.3999 16.5" stroke="white" stroke-width="2" stroke-linecap="round" stroke-linejoin="round"/>
<path d="M12.5 11C13.8807 11 15 9.88071 15 8.5C15 7.11929 13.8807 6 12.5 6C11.1193 6 10 7.11929 10 8.5C10 9.88071 11.1193 11 12.5 11Z" stroke="white" stroke-width="2" stroke-linecap="round" stroke-linejoin="round"/>
</svg>
